<?xml version="1.0" encoding="UTF-8"?>
<svg id="Layer_1" data-name="Layer 1" xmlns="http://www.w3.org/2000/svg" viewBox="0 0 669.54 174.4">
  <defs>
    <style>
      .cls-1 {
        fill: #fff;
      }
    </style>
  </defs>
  <g>
    <path class="cls-1" d="M74.94,2.77c12.42-.32,45.61,8.95,58.35,13.3,4.91,1.68,16.19,4.14,16.85,9.81,1.77,15.4-1.35,48.47-4.71,63.99-6.02,27.85-33.22,57.02-55.01,74.48-3.16,2.53-11.03,9.69-14.51,9.52-6.12-.3-37.11-29.91-42.67-36.17C4.34,105.2,3.46,83.15,1.58,41.13c-.26-5.86-2.93-12.26-.7-18.37,2.45-4.06,43.2-14.11,50.39-15.63s17-4.2,23.67-4.37ZM69.8,18.05c-17.12,1.83-35.86,10.23-53.09,12.92-1.96,1.36-1.37,12.2-1.26,15.34,1.51,45.79,11.29,67.13,45.09,97.1,4.64,4.11,10.66,9.82,16.48,11.46,5.91-.56,38.58-36.49,43.11-43.35,15.58-23.57,13.11-48.39,16.11-75.44-.53-6.27-12.34-7.6-17.62-9.14-12.91-3.76-36.03-10.26-48.8-8.89Z"/>
    <path class="cls-1" d="M123.4,57.03c-27.69,14.84-41.4,46.88-47.6,76.21-5.58-31.22-21.93-60.63-48.85-78.09,8.34-3.75,17.82-4.3,26.61-7.64,7.78-2.96,14.78-7.97,22.05-11.9,8.35,7.51,19.16,11.53,29.75,14.73,2.58.78,20.77,2.82,18.04,6.69Z"/>
  </g>
  <g>
    <path class="cls-1" d="M206.82,71.09c5.77,2.96,15.2,5.91,24.64,5.91,8.73,0,12.95-2.96,12.95-7.74s-4.22-7.32-14.92-10.98c-16.05-5.63-26.61-14.5-26.61-28.58,0-16.75,14.08-29.7,38.01-29.7,11.4,0,19.43,2.11,25.76,4.93l-5.35,20.27c-4.08-1.83-11.12-4.5-20.69-4.5-7.74,0-11.97,2.82-11.97,7.04,0,4.79,5.07,6.76,17.03,11.26,17.03,6.19,24.78,15.35,24.78,28.58,0,16.33-12.81,30.27-40.54,30.27-11.4,0-22.52-2.96-27.87-5.77l4.79-20.98Z"/>
    <path class="cls-1" d="M309.59,1.55v35.05h30.83V1.55h25.34v94.88h-25.34v-37.59h-30.83v37.59h-25.48V1.55h25.48Z"/>
    <path class="cls-1" d="M408.83,1.55v94.88h-25.48V1.55h25.48Z"/>
    <path class="cls-1" d="M485.84,58.14h-34.07v17.46h38.15v20.83h-63.63V1.55h61.66v20.69h-36.18v15.34h34.07v20.55Z"/>
    <path class="cls-1" d="M503.99,1.55h25.48v73.63h36.46v21.26h-61.94V1.55Z"/>
    <path class="cls-1" d="M578.32,2.82c8.17-1.27,19.01-1.97,30.27-1.97,18.16,0,29.56,2.96,39,9.43,10.42,7.18,17.17,19,17.17,36.46,0,19.29-7.32,31.82-16.61,39-10.42,8.16-25.9,11.68-44.49,11.68-12.25,0-20.41-.7-25.34-1.55V2.82ZM603.8,77.43c1.27.28,3.66.28,5.35.28,16.47.28,28.58-8.87,28.58-30.27,0-18.44-10.98-27.17-26.18-27.17-4.08,0-6.48.28-7.74.56v56.59Z"/>
  </g>
  <g>
    <path class="cls-1" d="M299.87,165.57l-2.3,8.3h-7.58l9.89-32.36h9.6l10.03,32.36h-7.87l-2.5-8.3h-9.26ZM308.08,160.1l-2.02-6.86c-.58-1.92-1.15-4.32-1.63-6.24h-.1c-.48,1.92-.96,4.37-1.49,6.24l-1.92,6.86h7.15Z"/>
    <path class="cls-1" d="M329.44,141.52v18.63c0,5.57,2.11,8.4,5.86,8.4s5.95-2.69,5.95-8.4v-18.63h7.3v18.15c0,9.98-5.04,14.74-13.49,14.74s-12.96-4.51-12.96-14.83v-18.05h7.34Z"/>
    <path class="cls-1" d="M361.12,147.66h-8.69v-6.14h24.87v6.14h-8.83v26.21h-7.34v-26.21Z"/>
    <path class="cls-1" d="M409.41,157.36c0,10.61-6.43,17.04-15.89,17.04s-15.22-7.25-15.22-16.46c0-9.7,6.19-16.95,15.75-16.95s15.36,7.44,15.36,16.37ZM386.03,157.79c0,6.34,2.98,10.8,7.87,10.8s7.78-4.71,7.78-10.99c0-5.81-2.78-10.8-7.83-10.8s-7.82,4.7-7.82,10.99Z"/>
    <path class="cls-1" d="M450.93,172.38c-2.26.77-6.53,1.82-10.8,1.82-5.9,0-10.18-1.49-13.15-4.37-2.98-2.78-4.61-7.01-4.56-11.76.05-10.75,7.87-16.9,18.48-16.9,4.18,0,7.39.82,8.98,1.58l-1.54,5.86c-1.78-.77-3.98-1.39-7.54-1.39-6.1,0-10.71,3.46-10.71,10.46s4.18,10.61,10.18,10.61c1.68,0,3.02-.19,3.6-.48v-6.77h-4.99v-5.71h12.05v17.04Z"/>
    <path class="cls-1" d="M456.64,141.95c2.35-.38,5.86-.67,9.75-.67,4.8,0,8.16.72,10.46,2.54,1.92,1.54,2.98,3.79,2.98,6.77,0,4.13-2.93,6.96-5.71,7.97v.14c2.26.91,3.5,3.07,4.32,6.05,1.01,3.65,2.02,7.87,2.64,9.12h-7.49c-.53-.91-1.3-3.55-2.26-7.54-.86-4.03-2.26-5.14-5.23-5.18h-2.21v12.72h-7.25v-31.92ZM463.89,155.87h2.88c3.65,0,5.81-1.82,5.81-4.66,0-2.98-2.02-4.46-5.38-4.51-1.78,0-2.78.14-3.31.24v8.93Z"/>
    <path class="cls-1" d="M514.53,157.36c0,10.61-6.43,17.04-15.89,17.04s-15.22-7.25-15.22-16.46c0-9.7,6.19-16.95,15.75-16.95s15.36,7.44,15.36,16.37ZM491.15,157.79c0,6.34,2.98,10.8,7.87,10.8s7.78-4.71,7.78-10.99c0-5.81-2.78-10.8-7.82-10.8s-7.83,4.7-7.83,10.99Z"/>
    <path class="cls-1" d="M526.62,141.52v18.63c0,5.57,2.11,8.4,5.86,8.4s5.95-2.69,5.95-8.4v-18.63h7.3v18.15c0,9.98-5.04,14.74-13.49,14.74s-12.96-4.51-12.96-14.83v-18.05h7.34Z"/>
    <path class="cls-1" d="M552.06,141.95c2.26-.38,5.42-.67,9.89-.67s7.73.86,9.89,2.59c2.06,1.63,3.46,4.32,3.46,7.49s-1.06,5.86-2.98,7.68c-2.5,2.35-6.19,3.41-10.51,3.41-.96,0-1.82-.05-2.5-.14v11.57h-7.25v-31.92ZM559.31,156.64c.62.14,1.39.19,2.45.19,3.89,0,6.29-1.97,6.29-5.28,0-2.98-2.06-4.75-5.71-4.75-1.49,0-2.5.14-3.02.29v9.55Z"/>
  </g>
  <polyline class="cls-1" points="202.04 164.78 283.55 164.78 283.55 154.78 202.04 154.78"/>
  <polyline class="cls-1" points="588.02 164.78 669.54 164.78 669.54 154.78 588.02 154.78"/>
</svg>